# xmcd
#
# Track frame offsets: 
#        150
#        2538
#        22332
#        37581
#        52244
#        70072
#        89848
#        108311
#        131075
#        154156
#        186910
#        214836
#        232686
#        254734
#        280918
#
# Disc length: 4045 seconds
#
# Revision: 3
# Processed by: cddbd v1.5.2PL0 Copyright (c) Steve Scherf et al.
# Submitted via: ExactAudioCopyFreeDBPlugin 1.0
#
DISCID=d60fcb0f
DTITLE=Various Artist - Luckenbach! Compadres! (Songs of Luckenbach T
DTITLE=exas)
DYEAR=2006
DGENRE=Country
TTITLE0=Intro
TTITLE1=Lost Gonzo Band - Gettin´ By
TTITLE2=Morrison-Williams - What I Like About Texas
TTITLE3=Tommy Alverson - Backsliders Wine
TTITLE4=Walt Wilkins - Little Bird
TTITLE5=Ed Burleson - Get It Out!
TTITLE6=John Arthur Martinez - Viva ! Luckenbach!
TTITLE7=Kent Finlay - Luckenbach Daylight
TTITLE8=Jimmy LaFave - I´ll Be Here In The Mornin´
TTITLE9=Brian Burns - Desperados Waiting For The Train
TTITLE10=McKay Brothers - Wheel
TTITLE11=Two Tons of Steel - Sangria Wine
TTITLE12=Derailers - London Homestick Blues
TTITLE13=Cory Morrow - Red Neck Mother
TTITLE14=Gonzos De Casa - Gonzos Compadres
EXTD=YEAR: 2006\nUpdated by Larry@YourTexasMusic.com
EXTT0=
EXTT1=
EXTT2=
EXTT3=
EXTT4=
EXTT5=
EXTT6=
EXTT7=
EXTT8=
EXTT9=
EXTT10=
EXTT11=
EXTT12=
EXTT13=
EXTT14=
PLAYORDER=
